<svg xmlns="http://www.w3.org/2000/svg" viewBox="0 0 1163.6 360"><defs><style>.cls-1{fill:#fff;}</style></defs><path class="cls-1" d="M154.87 158.41l-19.5 29.32 23.18 41.73H142.32l-19.09-34h-9.82v34H99V131.41h14.45V183h9.69l17-26.05z"/><path class="cls-1" d="M182.06 164.68c5.59-4.77 13.36-9.13 22.36-9.13 11.73.0 17.87 5.45 19.5 14.86a65.19 65.19.0 0 1 .41 9v50.05H210V181.32a43.71 43.71.0 0 0-.27-6.14c-.82-5.18-4.09-7.22-10.09-7.22-6.55.0-12.55 3.95-16.91 7.9v53.6H168.28V156.91h13.37z"/><path class="cls-1" d="M236.6 193.59c0-20.86 9.41-38 30.55-38 22.5.0 28.64 17.59 28.64 36.82s-7.91 38.73-30.28 38.73C242.88 231.1 236.6 211.6 236.6 193.59zm44.32-.68c0-11.86-1.91-25.64-14.18-25.64-12.82.0-15.27 15.28-15.27 26.46.0 13.77 3.13 25.64 14.45 25.64C278.06 219.37 280.92 205.87 280.92 192.91z"/><path class="cls-1" d="M390.72 158.55l-15.27 70.91H359.09L347 179.14 332.9 229.46H317.22l-14.59-71.05 14.45-1.5c10.1 55.91 10.1 56.05 10.23 56.05l14.32-54h11.59C365.9 213 366 213 366 213l10.5-56.05z"/><path class="cls-1" d="M402.31 131.41H416.9v77.32c0 7.09 1.78 10.23 6.82 10.23 2.87.0 6.55-1.09 10.23-2.73l1.77 11.32a39.6 39.6.0 0 1-15.41 3.27c-14.18.0-18-8-18-20.18z"/><path class="cls-1" d="M454 195.5c.27 15 6.55 23.46 18.27 23.46a41.44 41.44.0 0 0 19.37-5.32l.95 12.27c-4.63 2.6-12.95 5.19-21.81 5.19-24.82.0-31.37-18-31.37-38.6.0-26.32 12.41-36.95 28.64-36.95 18.14.0 25.77 12.27 25.77 34.09v5.86zm13.77-28.91c-9.4.0-13.63 9.41-13.63 19.37H479.9C479.9 172.87 475.4 166.59 467.76 166.59z"/><path class="cls-1" d="M546.61 131.41h14.46v98.05H548l-.41-6.82a24.36 24.36.0 0 1-18.28 8.18c-14.86.0-25.5-11.72-25.5-36.82.0-18.82 7.5-38.45 27.28-38.45 6.81.0 11.45 2.45 15.54 5.18zm.14 41c-4-3-8-5.45-13-5.45-7.91.0-15 5.87-15 27.41.0 16.09 5.59 24.69 14.32 24.69 5.86.0 10.37-3.28 13.64-6.69z"/><path class="cls-1" d="M616.16 156.91h13.22v71.18c0 17.46-5.31 31.78-28.23 31.78-9.81.0-19.63-2.86-24.54-5.46l2.32-12.68a45.8 45.8.0 0 0 21.54 6c11.87.0 15-8.59 15-20.45v-4.5a24.13 24.13.0 0 1-17.86 7.77c-15 0-25.5-11.45-25.5-36.55.0-18.68 7.5-38.45 26.86-38.45 7.5.0 12.55 3 16.64 6.13zm-1.1 15.68c-4.09-3-8.18-5.45-13.09-5.45-7.91.0-14.86 5.59-14.86 27.27.0 16.09 5.45 24.41 14.32 24.41 5.73.0 10.36-3.27 13.63-6.82z"/><path class="cls-1" d="M654.61 195.5c.27 15 6.54 23.46 18.27 23.46a41.51 41.51.0 0 0 19.37-5.32l1 12.27c-4.64 2.6-13 5.19-21.82 5.19-24.82.0-31.36-18-31.36-38.6.0-26.32 12.41-36.95 28.63-36.95 18.14.0 25.78 12.27 25.78 34.09v5.86zm13.77-28.91c-9.41.0-13.64 9.41-13.64 19.37h25.78C680.52 172.87 676 166.59 668.38 166.59z"/><path class="cls-1" d="M786.2 158.55l-15.4 70.91H759.34l-14.46-56.87-16.63 56.87h-11l-14.32-71.05 9-1 11.86 61.37 17.46-60h8.46l14.72 60 12.82-61.37z"/><path class="cls-1" d="M793.29 193.87c0-20.59 8.59-37.91 28.5-37.91 21 0 26.46 17.72 26.46 36.54.0 18.41-7.09 38.6-28.1 38.6C798.61 231.1 793.29 211.05 793.29 193.87zm45.55-.82c0-11.87-2.19-29.05-17.46-29.05-15.68.0-18.68 19.23-18.68 30.14.0 14.32 3.82 29.05 17.73 29.05C835.56 223.19 838.84 206.55 838.84 193.05z"/><path class="cls-1" d="M899.38 167.14l-7.5 4.09c-1.91-4-3.55-6.68-8.59-6.68-5.46.0-11 5.31-14.59 9.41v55.5h-9.14v-72h8.59v8.05c4.5-4.91 10.09-9.54 17.46-9.54C893.52 156 897.47 161.68 899.38 167.14z"/><path class="cls-1" d="M935.79 188.14 959 229.46H948.61l-20.32-35.87H915.88v35.87h-9.14V131.41h9.14v53.86h12.41l18.27-27.82 9 1z"/><path class="cls-1" d="M970.29 194.41c0 17.59 6 28.64 20.45 28.64 7.36.0 14.59-2.73 19.23-5.18l.82 8.18a46.52 46.52.0 0 1-21.14 5c-22.77.0-28.77-17.87-28.77-38.32.0-26.33 11.18-36.82 27.13-36.82 16.92.0 23.87 12 23.87 33.68v4.77zm17.18-30.54c-12 0-17.05 12.27-17.05 23.31h32.05C1002.47 171.64 996.88 163.87 987.47 163.87z"/><path class="cls-1" d="M1064.65 167.14l-7.5 4.09c-1.91-4-3.55-6.68-8.59-6.68-5.46.0-11 5.31-14.59 9.41v55.5h-9.14v-72h8.59v8.05c4.5-4.91 10.09-9.54 17.46-9.54C1058.79 156 1062.74 161.68 1064.65 167.14z"/></svg>
