<?xml version="1.0" encoding="utf-8"?>
<!-- Generator: Adobe Illustrator 22.0.1, SVG Export Plug-In . SVG Version: 6.00 Build 0)  -->
<svg version="1.1" id="Ebene_1" xmlns="http://www.w3.org/2000/svg" xmlns:xlink="http://www.w3.org/1999/xlink" x="0px" y="0px"
	 viewBox="0 0 672 94.5" style="enable-background:new 0 0 672 94.5;" xml:space="preserve">
<style type="text/css">
	.st0{fill:#FFFFFF;}
	.st1{opacity:0.5;fill:#FFFFFF;enable-background:new    ;}
</style>
<title>Kw_logo_grey</title>
<g id="Ebene_2_1_">
	<g id="Ebene_1-2">
		<g id="Ebene_2-2">
			<g id="Ebene_1-2-2">
				<path class="st0" d="M161.3,33.3L151,48.8l12.2,22h-8.6l-10.1-17.9h-5.2v17.9h-7.6V19.1h7.6v27.2h5.1l9-13.8L161.3,33.3z"/>
				<path class="st0" d="M176.6,36.7c3-2.5,7.1-4.8,11.8-4.8c6.2,0,9.4,2.9,10.3,7.9c0.2,1.6,0.3,3.2,0.2,4.8v26.4h-7.6V45.5
					c0-1.1,0-2.2-0.1-3.2c-0.4-2.7-2.2-3.8-5.3-3.8c-3.5,0-6.6,2.1-8.9,4.2v28.3h-7.6V32.6h7.1L176.6,36.7z"/>
				<path class="st0" d="M207.7,51.9c0-11,5-20.1,16.1-20.1c11.9,0,15.1,9.3,15.1,19.4s-4.2,20.5-16,20.5S207.7,61.4,207.7,51.9z
					 M231.2,51.6c0-6.3-1-13.5-7.5-13.5c-6.8,0-8.1,8.1-8.1,14c0,7.3,1.7,13.5,7.6,13.5C229.6,65.6,231.1,58.4,231.2,51.6
					L231.2,51.6z"/>
				<path class="st0" d="M291.1,33.4L283,70.9h-8.6L268,44.3l-7.4,26.6h-8.3l-7.7-37.5l7.6-0.8c5.3,29.5,5.3,29.6,5.4,29.6l7.6-28.5
					h6.1l6.7,28.5l5.5-29.6L291.1,33.4z"/>
				<path class="st0" d="M298.2,19.1h7.7v40.8c0,3.8,0.9,5.4,3.6,5.4c1.9-0.1,3.7-0.6,5.4-1.4l0.9,6c-2.6,1.1-5.3,1.7-8.1,1.7
					c-7.5,0-9.5-4.2-9.5-10.7L298.2,19.1z"/>
				<path class="st0" d="M327.6,52.9c0.1,7.9,3.5,12.4,9.6,12.4c3.6-0.1,7.1-1,10.2-2.8L348,69c-3.6,1.8-7.5,2.7-11.5,2.7
					c-13.1,0-16.6-9.5-16.6-20.4c0-13.9,6.5-19.5,15.1-19.5c9.6,0,13.6,6.5,13.6,18v3.1H327.6z M334.9,37.7c-5,0-7.2,5-7.2,10.2
					h13.6C341.3,41,338.9,37.7,334.9,37.7L334.9,37.7z"/>
				<path class="st0" d="M377.6,19.1h7.6v51.8h-6.9l-0.2-3.6c-2.4,2.8-6,4.3-9.6,4.3c-7.9,0-13.4-6.2-13.4-19.5
					c0-9.9,4-20.3,14.4-20.3c3,0,5.8,1,8.2,2.7L377.6,19.1z M377.6,40.8c-2.1-1.6-4.2-2.9-6.8-2.9c-4.2,0-7.9,3.1-7.9,14.5
					c0,8.5,3,13,7.6,13c2.8-0.1,5.4-1.4,7.2-3.5V40.8z"/>
				<path class="st0" d="M417.3,32.6h7v37.6c0,9.2-2.8,16.8-14.9,16.8c-4.5,0-8.9-1-13-2.9l1.2-6.7c3.5,2,7.4,3.1,11.4,3.2
					c6.3,0,7.9-4.5,7.9-10.8v-2.4c-2.4,2.6-5.9,4.1-9.4,4.1c-7.9,0-13.5-6-13.5-19.3c0-9.9,4-20.3,14.2-20.3c3.2,0,6.3,1.2,8.8,3.2
					L417.3,32.6z M416.7,40.8c-2.2-1.6-4.3-2.9-6.9-2.9c-4.2,0-7.9,3-7.9,14.4c0,8.5,2.9,12.9,7.6,12.9c2.8-0.1,5.4-1.4,7.2-3.6
					L416.7,40.8z"/>
				<path class="st0" d="M440.5,52.9c0.1,7.9,3.5,12.4,9.6,12.4c3.6-0.1,7.1-1,10.2-2.8l0.5,6.5c-3.6,1.8-7.5,2.7-11.5,2.7
					c-13.1,0-16.6-9.5-16.6-20.4c0-13.9,6.5-19.5,15.1-19.5c9.6,0,13.6,6.5,13.6,18v3.1H440.5z M447.7,37.7c-5,0-7.2,5-7.2,10.2
					h13.6C454.1,41,451.8,37.7,447.7,37.7L447.7,37.7z"/>
				<path class="st0" d="M510.5,33.4l-8.1,37.4h-6l-7.6-30l-8.8,30h-5.8l-7.6-37.5l4.8-0.5l6.3,32.4l9.2-31.7h4.5l7.8,31.7l6.8-32.4
					L510.5,33.4z"/>
				<path class="st0" d="M516.3,52.1c0-10.9,4.5-20,15-20c11.1,0,14,9.4,14,19.3c0,9.7-3.8,20.4-14.8,20.4
					C519.1,71.7,516.3,61.2,516.3,52.1z M540.3,51.7c0-6.3-1.2-15.3-9.2-15.3c-8.3,0-9.9,10.2-9.9,15.9c0,7.6,2,15.3,9.4,15.3
					C538.6,67.6,540.3,58.8,540.3,51.7L540.3,51.7z"/>
				<path class="st0" d="M576.5,38l-4,2.2c-1-2.1-1.9-3.5-4.5-3.5c-2.9,0-5.8,2.8-7.7,5v29.2h-4.8v-38h4.6v4.2c2.4-2.6,5.3-5,9.2-5
					C573.4,32,575.5,35.1,576.5,38z"/>
				<path class="st0" d="M598.4,49l12.2,21.8h-5.5l-10.7-18.9h-6.5v18.9h-4.8V19.1h4.8v28.5h6.5l9.7-14.7l4.8,0.5L598.4,49z"/>
				<path class="st0" d="M619.2,52.4c0,9.3,3.2,15.1,10.8,15.1c3.6-0.1,7-1,10.2-2.7l0.4,4.3c-3.5,1.8-7.3,2.7-11.2,2.7
					c-12,0-15.2-9.4-15.2-20.2c0-13.9,5.9-19.5,14.3-19.5c8.9,0,12.6,6.3,12.6,17.8v2.5H619.2z M628.3,36.2c-6.3,0-9,6.5-9,12.3
					h16.9C636.2,40.3,633.2,36.2,628.3,36.2L628.3,36.2z"/>
				<path class="st0" d="M672,38l-4,2.2c-1-2.1-1.9-3.5-4.5-3.5c-2.9,0-5.8,2.8-7.7,5v29.2H651v-38h4.5v4.2c2.4-2.6,5.3-5,9.2-5
					C668.9,32,671,35.1,672,38z"/>
				<polygon class="st0" points="66.8,45.8 112.6,0 45.8,0 0,45.8 				"/>
				<polygon class="st1" points="66.8,48.7 0,48.7 45.8,94.5 112.6,94.5 				"/>
			</g>
		</g>
	</g>
</g>
</svg>
